<svg width="48" height="48" viewBox="0 0 48 48" fill="none" xmlns="http://www.w3.org/2000/svg">
<path d="M40.5 28L39.8543 28.8218C37.0052 32.4479 37.0052 37.5521 39.8543 41.1782L40.5 42" stroke="#152C5B" stroke-width="3" stroke-linecap="round"/>
<path d="M7 28L7.64569 28.8218C10.4948 32.4479 10.4948 37.5521 7.64569 41.1782L7 42" stroke="#152C5B" stroke-width="3" stroke-linecap="round"/>
<path d="M32.5 28L31.8543 28.8218C29.0052 32.4479 29.0052 37.5521 31.8543 41.1782L32.5 42" stroke="#152C5B" stroke-width="3" stroke-linecap="round"/>
<path d="M15 28L15.6457 28.8218C18.4948 32.4479 18.4948 37.5521 15.6457 41.1782L15 42" stroke="#152C5B" stroke-width="3" stroke-linecap="round"/>
<path d="M1.5 9C1.5 7.61929 2.61929 6.5 4 6.5H44C45.3807 6.5 46.5 7.61929 46.5 9V21C46.5 22.3807 45.3807 23.5 44 23.5H4C2.61929 23.5 1.5 22.3807 1.5 21V9Z" stroke="#152C5B" stroke-width="3"/>
<path d="M48 18L0 18" stroke="#152C5B" stroke-width="3" stroke-linecap="round"/>
<path d="M27.5 12.5L20.5 12.5" stroke="#FF498B" stroke-width="3" stroke-linecap="round"/>
</svg>
