<svg width="48" height="48" viewBox="0 0 48 48" fill="none" xmlns="http://www.w3.org/2000/svg">
<path d="M6.93512 18.9252C7.34969 18.0546 8.228 17.5 9.19227 17.5H38.8077C39.772 17.5 40.6503 18.0546 41.0649 18.9252L43.922 24.9252C44.712 26.5842 43.5024 28.5 41.6649 28.5H6.33513C4.49762 28.5 3.28797 26.5842 4.07797 24.9252L6.93512 18.9252Z" stroke="#152C5B" stroke-width="3"/>
<mask id="path-2-inside-1_13_468" fill="white">
<path d="M12 27C12.5523 27 13 27.4477 13 28L13 42C13 44.2091 11.2091 46 9 46C6.79086 46 5 44.2091 5 42L5 28C5 27.4477 5.44772 27 6 27L12 27Z"/>
</mask>
<path d="M12 27C12.5523 27 13 27.4477 13 28L13 42C13 44.2091 11.2091 46 9 46C6.79086 46 5 44.2091 5 42L5 28C5 27.4477 5.44772 27 6 27L12 27Z" stroke="#152C5B" stroke-width="6" mask="url(#path-2-inside-1_13_468)"/>
<mask id="path-3-inside-2_13_468" fill="white">
<path d="M42 27C42.5523 27 43 27.4477 43 28L43 42C43 44.2091 41.2091 46 39 46C36.7909 46 35 44.2091 35 42L35 28C35 27.4477 35.4477 27 36 27L42 27Z"/>
</mask>
<path d="M42 27C42.5523 27 43 27.4477 43 28L43 42C43 44.2091 41.2091 46 39 46C36.7909 46 35 44.2091 35 42L35 28C35 27.4477 35.4477 27 36 27L42 27Z" stroke="#152C5B" stroke-width="6" mask="url(#path-3-inside-2_13_468)"/>
<path d="M17 11L17 17" stroke="#152C5B" stroke-width="3" stroke-linecap="round"/>
<mask id="path-5-inside-3_13_468" fill="white">
<path d="M20 2C20.5523 2 21 2.44772 21 3L21 8C21 10.2091 19.2091 12 17 12C14.7909 12 13 10.2091 13 8L13 3C13 2.44772 13.4477 2 14 2L20 2Z"/>
</mask>
<path d="M20 2C20.5523 2 21 2.44772 21 3L21 8C21 10.2091 19.2091 12 17 12C14.7909 12 13 10.2091 13 8L13 3C13 2.44772 13.4477 2 14 2L20 2Z" stroke="#FF498B" stroke-width="6" mask="url(#path-5-inside-3_13_468)"/>
<path d="M32 11L32 17" stroke="#152C5B" stroke-width="3" stroke-linecap="round"/>
<mask id="path-7-inside-4_13_468" fill="white">
<path d="M35 2C35.5523 2 36 2.44772 36 3L36 8C36 10.2091 34.2091 12 32 12C29.7909 12 28 10.2091 28 8L28 3C28 2.44772 28.4477 2 29 2L35 2Z"/>
</mask>
<path d="M35 2C35.5523 2 36 2.44772 36 3L36 8C36 10.2091 34.2091 12 32 12C29.7909 12 28 10.2091 28 8L28 3C28 2.44772 28.4477 2 29 2L35 2Z" stroke="#FF498B" stroke-width="6" mask="url(#path-7-inside-4_13_468)"/>
</svg>
