<svg width="48" height="48" viewBox="0 0 48 48" fill="none" xmlns="http://www.w3.org/2000/svg">
<path d="M1.5 29C1.5 27.6193 2.61929 26.5 4 26.5H20C21.3807 26.5 22.5 27.6193 22.5 29V35C22.5 36.3807 21.3807 37.5 20 37.5H4C2.61929 37.5 1.5 36.3807 1.5 35V29Z" stroke="#152C5B" stroke-width="3"/>
<path d="M6 39L6 46" stroke="#152C5B" stroke-width="3" stroke-linecap="round"/>
<path d="M18 39L18 46" stroke="#152C5B" stroke-width="3" stroke-linecap="round"/>
<path d="M12 14L12 25" stroke="#152C5B" stroke-width="3" stroke-linecap="round"/>
<path d="M17 14L17 18" stroke="#152C5B" stroke-width="3" stroke-linecap="round"/>
<path d="M6.12792 2.89524C6.17732 2.6647 6.38106 2.5 6.61683 2.5H17.3832C17.6189 2.5 17.8227 2.6647 17.8721 2.89524L20.0149 12.8952C20.0816 13.2065 19.8443 13.5 19.526 13.5H4.47397C4.15565 13.5 3.91837 13.2065 3.98507 12.8952L6.12792 2.89524Z" stroke="#FF498B" stroke-width="3"/>
</svg>
