<svg width="40" height="48" viewBox="0 0 40 48" fill="none" xmlns="http://www.w3.org/2000/svg">
<path d="M30.5 40C30.5 41.3349 29.3789 42.9472 26.6429 44.3152C23.9966 45.6383 20.2359 46.5 16 46.5C11.7641 46.5 8.00336 45.6383 5.35711 44.3152C2.62114 42.9472 1.5 41.3349 1.5 40C1.5 38.6651 2.62114 37.0528 5.35711 35.6848C8.00336 34.3617 11.7641 33.5 16 33.5C20.2359 33.5 23.9966 34.3617 26.6429 35.6848C29.3789 37.0528 30.5 38.6651 30.5 40Z" stroke="#152C5B" stroke-width="3"/>
<path d="M28.25 14C28.25 17.5505 26.7678 24.0558 24.2965 29.6973C23.0673 32.5035 21.6431 34.9779 20.1286 36.7206C18.5815 38.5007 17.1811 39.25 16 39.25C14.8189 39.25 13.4185 38.5007 11.8714 36.7206C10.3569 34.9779 8.93274 32.5035 7.70345 29.6973C5.23215 24.0558 3.75 17.5505 3.75 14C3.75 7.23451 9.23451 1.75 16 1.75C22.7655 1.75 28.25 7.23451 28.25 14Z" fill="white" stroke="#152C5B" stroke-width="3.5"/>
<circle cx="16" cy="14" r="4.5" stroke="#FF498B" stroke-width="3"/>
</svg>
