<svg width="48" height="48" viewBox="0 0 48 48" fill="none" xmlns="http://www.w3.org/2000/svg">
<mask id="path-1-inside-1_7_109" fill="white">
<path fill-rule="evenodd" clip-rule="evenodd" d="M19.2361 6C18.4785 6 17.786 6.42801 17.4472 7.10557L15.5 11H8C3.58172 11 0 14.5817 0 19V33C0 37.4183 3.58172 41 8 41H40C44.4183 41 48 37.4183 48 33V19C48 14.5817 44.4183 11 40 11H32.5L30.5528 7.10557C30.214 6.428 29.5215 6 28.7639 6H19.2361Z"/>
</mask>
<path d="M17.4472 7.10557L14.7639 5.76393L14.7639 5.76393L17.4472 7.10557ZM15.5 11V14H17.3541L18.1833 12.3416L15.5 11ZM32.5 11L29.8167 12.3416L30.6459 14H32.5V11ZM30.5528 7.10557L27.8695 8.44721L27.8695 8.44721L30.5528 7.10557ZM20.1305 8.44722C19.9611 8.786 19.6148 9 19.2361 9V3C17.3422 3 15.6109 4.07001 14.7639 5.76393L20.1305 8.44722ZM18.1833 12.3416L20.1305 8.44721L14.7639 5.76393L12.8167 9.65836L18.1833 12.3416ZM8 14H15.5V8H8V14ZM3 19C3 16.2386 5.23858 14 8 14V8C1.92487 8 -3 12.9249 -3 19H3ZM3 33V19H-3V33H3ZM8 38C5.23858 38 3 35.7614 3 33H-3C-3 39.0751 1.92487 44 8 44V38ZM40 38H8V44H40V38ZM45 33C45 35.7614 42.7614 38 40 38V44C46.0751 44 51 39.0751 51 33H45ZM45 19V33H51V19H45ZM40 14C42.7614 14 45 16.2386 45 19H51C51 12.9249 46.0751 8 40 8V14ZM32.5 14H40V8H32.5V14ZM27.8695 8.44721L29.8167 12.3416L35.1833 9.65836L33.2361 5.76393L27.8695 8.44721ZM28.7639 9C28.3852 9 28.0389 8.786 27.8695 8.44721L33.2361 5.76393C32.3891 4.07001 30.6578 3 28.7639 3V9ZM19.2361 9H28.7639V3H19.2361V9Z" fill="#152C5B" mask="url(#path-1-inside-1_7_109)"/>
<circle cx="24" cy="26" r="6.5" stroke="#FF498B" stroke-width="3"/>
<path d="M40 18H34" stroke="#152C5B" stroke-width="3" stroke-linecap="round"/>
</svg>
